HIERARCHY
ROOT Hips
{
	OFFSET 302.116486 91.969017 -502.769196
	CHANNELS 6 Xposition Yposition Zposition Zrotation Yrotation Xrotation 
	JOINT LeftUpLeg
	{
		OFFSET 0.103459 1.857831 10.548511
		CHANNELS 3 Zrotation Yrotation Xrotation
		JOINT LeftLeg
		{
			OFFSET 43.500000 -0.000050 0.000000
			CHANNELS 3 Zrotation Yrotation Xrotation
			JOINT LeftFoot
			{
				OFFSET 42.372196 0.000015 0.000013
				CHANNELS 3 Zrotation Yrotation Xrotation
				JOINT LeftToe
				{
					OFFSET 17.299992 -0.000003 0.000004
					CHANNELS 3 Zrotation Yrotation Xrotation
					End Site
					{
						OFFSET 0.000000 0.000000 0.000000
					}
				}
			}
		}
	}
	JOINT RightUpLeg
	{
		OFFSET 0.103458 1.857840 -10.548509
		CHANNELS 3 Zrotation Yrotation Xrotation
		JOINT RightLeg
		{
			OFFSET 43.500038 -0.000042 -0.000002
			CHANNELS 3 Zrotation Yrotation Xrotation
			JOINT RightFoot
			{
				OFFSET 42.372261 0.000004 0.000031
				CHANNELS 3 Zrotation Yrotation Xrotation
				JOINT RightToe
				{
					OFFSET 17.299984 -0.000009 0.000004
					CHANNELS 3 Zrotation Yrotation Xrotation
					End Site
					{
						OFFSET 0.000000 0.000000 0.000000
					}
				}
			}
		}
	}
	JOINT Spine
	{
		OFFSET 6.901966 -2.603730 0.000007
		CHANNELS 3 Zrotation Yrotation Xrotation
		JOINT Spine1
		{
			OFFSET 12.588103 -0.000008 0.000003
			CHANNELS 3 Zrotation Yrotation Xrotation
			JOINT Spine2
			{
				OFFSET 12.343202 0.000024 -0.000014
				CHANNELS 3 Zrotation Yrotation Xrotation
				JOINT Neck
				{
					OFFSET 25.832888 -0.000004 0.000015
					CHANNELS 3 Zrotation Yrotation Xrotation
					JOINT Head
					{
						OFFSET 11.766605 -0.000005 -0.000022
						CHANNELS 3 Zrotation Yrotation Xrotation
						End Site
						{
							OFFSET 0.000000 0.000000 0.000000
						}
					}
				}
				JOINT LeftShoulder
				{
					OFFSET 19.745907 -1.480368 6.000113
					CHANNELS 3 Zrotation Yrotation Xrotation
					JOINT LeftArm
					{
						OFFSET 11.284131 0.000002 -0.000036
						CHANNELS 3 Zrotation Yrotation Xrotation
						JOINT LeftForeArm
						{
							OFFSET 33.000053 -0.000000 0.000032
							CHANNELS 3 Zrotation Yrotation Xrotation
							JOINT LeftHand
							{
								OFFSET 25.200001 0.000002 0.000014
								CHANNELS 3 Zrotation Yrotation Xrotation
								End Site
								{
									OFFSET 0.000000 0.000000 0.000000
								}
							}
						}
					}
				}
				JOINT RightShoulder
				{
					OFFSET 19.746090 -1.480385 -6.000069
					CHANNELS 3 Zrotation Yrotation Xrotation
					JOINT RightArm
					{
						OFFSET 11.284133 -0.000013 -0.000012
						CHANNELS 3 Zrotation Yrotation Xrotation
						JOINT RightForeArm
						{
							OFFSET 33.000103 0.000006 0.000008
							CHANNELS 3 Zrotation Yrotation Xrotation
							JOINT RightHand
							{
								OFFSET 25.199774 0.000153 0.000412
								CHANNELS 3 Zrotation Yrotation Xrotation
								End Site
								{
									OFFSET 0.000000 0.000000 0.000000
								}
							}
						}
					}
				}
			}
		}
	}
}
MOTION
Frames: 11
Frame Time: 0.033333
302.116486 91.969017 -502.769196 91.021348 6.552558 84.664730 -174.687306 -2.278194 176.361345 -9.914729 -1.662853 -7.577913 72.648044 3.860029 -5.286522 21.454551 0.003082 0.000000 -173.062937 5.732416 -172.863414 -12.259319 3.618993 10.386681 78.301268 -6.305359 4.538164 21.454558 -0.003109 -0.000019 7.607781 -0.443832 0.232451 5.175254 -0.889569 0.469247 4.857138 -0.886563 0.474668 7.582122 -6.080812 -5.708232 -16.990275 13.101534 -11.394125 -97.581355 -85.837030 -84.513578 2.128571 15.080730 -9.311507 -26.039611 -17.467090 1.315836 10.328702 -5.875530 32.151951 -98.235298 82.615571 84.081029 -2.267236 -11.586211 8.670643 -22.250099 16.506890 -1.220074 4.781182 7.537348 -9.000355 
302.116699 91.970947 -502.776794 91.024968 6.552565 84.662182 -174.695106 -2.272794 176.394321 -9.914727 -1.666309 -7.601300 72.648050 3.871212 -5.305538 21.454553 0.003088 -0.000001 -173.078264 5.736997 -172.907823 -12.269996 3.618996 10.413061 78.305551 -6.320338 4.553823 21.454558 -0.003105 -0.000017 7.607783 -0.443829 0.232451 5.175263 -0.889566 0.469244 4.857135 -0.886570 0.474672 7.572746 -6.028408 -5.684790 -16.952565 13.102465 -11.359562 -97.509966 -85.831668 -84.585739 2.132187 15.094231 -9.364384 -26.080661 -17.480308 1.315845 10.318901 -5.806786 32.068291 -98.341132 82.596549 83.976049 -2.311562 -11.591561 8.634968 -22.264082 16.515235 -1.220075 4.733964 7.634213 -8.998521 
302.116608 91.968689 -502.794006 91.033465 6.557333 84.654430 -174.700434 -2.268406 176.359296 -9.914762 -1.672820 -7.580990 72.647169 3.861566 -5.289869 21.454555 0.003097 0.000002 -173.103058 5.742707 -172.943067 -12.295222 3.610809 10.425035 78.289513 -6.324709 4.568641 21.454557 -0.003105 -0.000017 7.607787 -0.443832 0.232447 5.174750 -0.889571 0.469247 4.856620 -0.886568 0.474676 7.585683 -5.958648 -5.661856 -16.913138 13.074355 -11.311747 -97.582052 -85.820036 -84.514158 2.137921 15.105433 -9.423747 -26.123877 -17.499950 1.315838 10.286963 -5.683891 31.958510 -98.394237 82.597901 83.922528 -2.368515 -11.620911 8.725255 -22.296562 16.486258 -1.220087 4.643840 7.707753 -9.111579 
302.118286 91.964417 -502.802612 91.039728 6.586730 84.648508 -174.664548 -2.254103 176.370320 -9.893416 -1.676533 -7.589124 72.633386 3.870233 -5.279615 21.454553 0.003086 0.000001 -173.089616 5.755216 -172.932221 -12.311086 3.603446 10.410716 78.284616 -6.310114 4.585233 21.454562 -0.003115 -0.000019 7.607781 -0.443836 0.232457 5.186743 -0.889572 0.469245 4.868625 -0.886563 0.474670 7.590751 -5.946594 -5.672577 -16.897354 13.081026 -11.321607 -97.533407 -85.783973 -84.566177 2.095698 15.126714 -9.450197 -26.141091 -17.468651 1.315829 10.232528 -5.631994 31.986189 -98.411988 82.606466 83.903943 -2.392735 -11.634201 8.666115 -22.326247 16.491382 -1.220067 4.599433 7.774062 -9.143272 
302.121185 91.964363 -502.817291 91.048594 6.592872 84.657524 -174.670627 -2.242596 176.441832 -9.884880 -1.681677 -7.632112 72.602397 3.908998 -5.250821 21.454555 0.003104 -0.000000 -173.105393 5.760601 -172.919776 -12.337156 3.593875 10.404033 78.277875 -6.304571 4.586913 21.454557 -0.003106 -0.000016 7.607786 -0.443841 0.232450 5.185338 -0.889573 0.469249 4.867222 -0.886557 0.474675 7.617556 -5.968328 -5.694637 -16.886615 13.123562 -11.359747 -97.817721 -85.791226 -84.280149 2.072379 15.146590 -9.628957 -26.153821 -17.397161 1.315830 10.160960 -5.538656 32.171567 -98.419297 82.598721 83.897242 -2.409219 -11.633541 8.566777 -22.318910 16.477372 -1.220075 4.541319 7.872526 -9.227136 
302.117889 91.963272 -502.827606 91.051906 6.615413 84.669149 -174.659384 -2.241705 176.447050 -9.900498 -1.672612 -7.627424 72.617895 3.884515 -5.320647 21.454551 0.003094 0.000000 -173.101364 5.758979 -172.902359 -12.370200 3.586024 10.391636 78.298461 -6.281579 4.645689 21.454558 -0.003108 -0.000018 7.607793 -0.443821 0.232458 5.184634 -0.889573 0.469248 4.866509 -0.886568 0.474669 7.626952 -5.945871 -5.702696 -16.867962 13.073774 -11.344467 -97.915352 -85.789826 -84.182143 2.050093 15.183208 -9.568258 -26.136723 -17.419219 1.315829 10.148251 -5.459465 32.103880 -98.503274 82.591139 83.813436 -2.413487 -11.632600 8.538003 -22.302320 16.458150 -1.220080 4.476623 7.917556 -9.340220 
302.115906 91.964546 -502.841705 91.056435 6.626569 84.691279 -174.676665 -2.236198 176.483974 -9.922475 -1.673029 -7.645499 72.586032 3.921920 -5.237402 21.454553 0.003086 -0.000001 -173.118699 5.754622 -172.864602 -12.414766 3.567765 10.396208 78.299076 -6.296446 4.597290 21.454558 -0.003107 -0.000016 7.607781 -0.443840 0.232443 5.183923 -0.889567 0.469253 4.865793 -0.886564 0.474661 7.632710 -5.933688 -5.688835 -16.859941 13.086873 -11.332184 -98.072972 -85.821204 -84.021435 2.063871 15.196433 -9.588631 -26.104112 -17.381110 1.315831 10.181331 -5.390008 32.164054 -98.590891 82.578886 83.726303 -2.435982 -11.617520 8.564744 -22.209601 16.379250 -1.213815 4.411241 7.986039 -9.306299 
302.110596 91.961853 -502.852692 91.058252 6.640586 84.714345 -174.674930 -2.243300 176.481857 -9.929987 -1.675625 -7.620929 72.606980 3.886072 -5.299246 21.454555 0.003103 0.000001 -173.117333 5.752107 -172.902551 -12.426302 3.566865 10.428357 78.300093 -6.310470 4.631270 21.454558 -0.003117 -0.000018 7.607769 -0.443842 0.232443 5.183232 -0.889574 0.469251 4.865113 -0.886562 0.474673 7.633273 -5.908256 -5.677252 -16.868136 13.092831 -11.320659 -98.116774 -85.801383 -83.978993 2.046499 15.209569 -9.569001 -26.066978 -17.392967 1.315835 10.182608 -5.328118 32.133878 -98.577743 82.573606 83.739916 -2.474042 -11.641759 8.573405 -22.067322 16.289381 -1.206187 4.410207 8.072694 -9.179671 
302.102112 91.958969 -502.859497 91.058900 6.658527 84.733114 -174.660067 -2.255006 176.455519 -9.925680 -1.682496 -7.592798 72.599781 3.873488 -5.273721 21.454550 0.003088 -0.000001 -173.097853 5.754806 -172.853578 -12.431081 3.570854 10.406049 78.298570 -6.300041 4.611112 21.454558 -0.003107 -0.000016 7.607780 -0.443842 0.232443 5.182622 -0.889565 0.469253 4.864503 -0.886569 0.474674 7.659669 -5.875742 -5.679793 -16.881969 13.080379 -11.315978 -98.053280 -85.805488 -84.042459 2.050243 15.207160 -9.605999 -26.069519 -17.370725 1.315830 10.255228 -5.304224 32.141733 -98.599422 82.563518 83.719002 -2.470042 -11.649911 8.502600 -21.943388 16.219821 -1.200103 4.407134 7.962002 -9.206730 
302.093414 91.964920 -502.866394 91.058846 6.658336 84.738373 -174.666706 -2.260807 176.468784 -9.915135 -1.688891 -7.591346 72.587972 3.868263 -5.286905 21.454553 0.003087 -0.000000 -173.100886 5.741106 -172.895734 -12.414058 3.577375 10.441921 78.288967 -6.342077 4.543521 21.454558 -0.003115 -0.000017 7.607787 -0.443828 0.232461 5.182138 -0.889565 0.469236 4.864015 -0.886567 0.474671 7.636328 -5.884652 -5.668303 -16.863063 13.102449 -11.311469 -98.073088 -85.777935 -84.024816 2.041753 15.219350 -9.581979 -26.065902 -17.427424 1.315840 10.249530 -5.264087 32.102033 -98.612625 82.559850 83.705922 -2.444559 -11.685062 8.453116 -21.833031 16.160911 -1.197834 4.347331 7.938237 -9.267830 
302.083191 91.961418 -502.874298 91.058504 6.671085 84.731932 -174.660177 -2.259398 176.412858 -9.925223 -1.662207 -7.569376 72.585506 3.851720 -5.288376 21.454553 0.003089 0.000001 -173.096610 5.740199 -172.863864 -12.435340 3.582006 10.407994 78.309232 -6.298811 4.621874 21.454558 -0.003110 -0.000017 7.607790 -0.443829 0.232447 5.181810 -0.889571 0.469238 4.863691 -0.886569 0.474677 7.650978 -5.926409 -5.666358 -16.946447 13.144772 -11.340440 -98.137695 -85.739515 -83.963406 2.016025 15.187293 -9.727531 -26.052531 -17.380858 1.315834 10.232131 -5.284338 32.123268 -98.733560 82.573627 83.583026 -2.383357 -11.750530 8.413345 -21.782102 16.174352 -1.196549 4.297567 7.959464 -9.253848 
